<?xml version="1.0" encoding="utf-8"?><svg width="auto" height="4170" style="overflow:visible " version="1.1" xmlns="http://www.w3.org/2000/svg"><rect x="20" y="20" width="200" height="40" style="fill:white;stroke:black;stroke-width:1" /><text x="30" y="30" font-size="10" style="fill:blue">xs:schema</text><text x="30" y="40" font-size="8" style="fill:black">xmlns: http://www.uniovi.es</text><text x="30" y="50" font-size="8" style="fill:black">elementFormDefault: qualified</text><text x="30" y="60" font-size="8" style="fill:black">targetNamespace: http://www.uniovi.es</text><text x="30" y="70" font-size="8" style="fill:black">xmlns:xs: http://www.w3.org/2001/XMLSchema</text><rect x="240" y="20" width="200" height="40" style="fill:white;stroke:black;stroke-width:1" /><text x="250" y="30" font-size="10" style="fill:blue">xs:element</text><path d="M220 40 C240 40 220 40 240 40" style="fill:transparent;stroke:black" /><text x="250" y="40" font-size="8" style="fill:black">name: circuitos</text><rect x="460" y="20" width="200" height="40" style="fill:white;stroke:black;stroke-width:1" /><text x="470" y="30" font-size="10" style="fill:blue">xs:complexType</text><path d="M440 40 C460 40 440 40 460 40" style="fill:transparent;stroke:black" /><rect x="680" y="20" width="200" height="40" style="fill:white;stroke:black;stroke-width:1" /><text x="690" y="30" font-size="10" style="fill:blue">xs:sequence</text><path d="M660 40 C680 40 660 40 680 40" style="fill:transparent;stroke:black" /><rect x="900" y="20" width="200" height="40" style="fill:white;stroke:black;stroke-width:1" /><text x="910" y="30" font-size="10" style="fill:blue">xs:element</text><path d="M880 40 C900 40 880 40 900 40" style="fill:transparent;stroke:black" /><text x="910" y="40" font-size="8" style="fill:black">minOccurs: 1</text><text x="910" y="50" font-size="8" style="fill:black">maxOccurs: unbounded</text><text x="910" y="60" font-size="8" style="fill:black">ref: circuito</text><rect x="240" y="220" width="200" height="40" style="fill:white;stroke:black;stroke-width:1" /><text x="250" y="230" font-size="10" style="fill:blue">xs:element</text><path d="M220 40 C240 40 220 240 240 240" style="fill:transparent;stroke:black" /><text x="250" y="240" font-size="8" style="fill:black">name: circuito</text><rect x="460" y="220" width="200" height="40" style="fill:white;stroke:black;stroke-width:1" /><text x="470" y="230" font-size="10" style="fill:blue">xs:complexType</text><path d="M440 240 C460 240 440 240 460 240" style="fill:transparent;stroke:black" /><rect x="680" y="220" width="200" height="40" style="fill:white;stroke:black;stroke-width:1" /><text x="690" y="230" font-size="10" style="fill:blue">xs:sequence</text><path d="M660 240 C680 240 660 240 680 240" style="fill:transparent;stroke:black" /><rect x="900" y="220" width="200" height="40" style="fill:white;stroke:black;stroke-width:1" /><text x="910" y="230" font-size="10" style="fill:blue">xs:element</text><path d="M880 240 C900 240 880 240 900 240" style="fill:transparent;stroke:black" /><text x="910" y="240" font-size="8" style="fill:black">ref: nombre_circuito</text><rect x="900" y="270" width="200" height="40" style="fill:white;stroke:black;stroke-width:1" /><text x="910" y="280" font-size="10" style="fill:blue">xs:element</text><path d="M880 240 C900 240 880 290 900 290" style="fill:transparent;stroke:black" /><text x="910" y="290" font-size="8" style="fill:black">ref: longitudCircuito</text><rect x="900" y="320" width="200" height="40" style="fill:white;stroke:black;stroke-width:1" /><text x="910" y="330" font-size="10" style="fill:blue">xs:element</text><path d="M880 240 C900 240 880 340 900 340" style="fill:transparent;stroke:black" /><text x="910" y="340" font-size="8" style="fill:black">ref: anchura</text><rect x="900" y="370" width="200" height="40" style="fill:white;stroke:black;stroke-width:1" /><text x="910" y="380" font-size="10" style="fill:blue">xs:element</text><path d="M880 240 C900 240 880 390 900 390" style="fill:transparent;stroke:black" /><text x="910" y="390" font-size="8" style="fill:black">ref: horaEspaña</text><rect x="900" y="420" width="200" height="40" style="fill:white;stroke:black;stroke-width:1" /><text x="910" y="430" font-size="10" style="fill:blue">xs:element</text><path d="M880 240 C900 240 880 440 900 440" style="fill:transparent;stroke:black" /><text x="910" y="440" font-size="8" style="fill:black">ref: numeroVueltas</text><rect x="900" y="470" width="200" height="40" style="fill:white;stroke:black;stroke-width:1" /><text x="910" y="480" font-size="10" style="fill:blue">xs:element</text><path d="M880 240 C900 240 880 490 900 490" style="fill:transparent;stroke:black" /><text x="910" y="490" font-size="8" style="fill:black">ref: localidad</text><rect x="900" y="520" width="200" height="40" style="fill:white;stroke:black;stroke-width:1" /><text x="910" y="530" font-size="10" style="fill:blue">xs:element</text><path d="M880 240 C900 240 880 540 900 540" style="fill:transparent;stroke:black" /><text x="910" y="540" font-size="8" style="fill:black">ref: pais</text><rect x="900" y="570" width="200" height="40" style="fill:white;stroke:black;stroke-width:1" /><text x="910" y="580" font-size="10" style="fill:blue">xs:element</text><path d="M880 240 C900 240 880 590 900 590" style="fill:transparent;stroke:black" /><text x="910" y="590" font-size="8" style="fill:black">ref: referencias</text><rect x="900" y="620" width="200" height="40" style="fill:white;stroke:black;stroke-width:1" /><text x="910" y="630" font-size="10" style="fill:blue">xs:element</text><path d="M880 240 C900 240 880 640 900 640" style="fill:transparent;stroke:black" /><text x="910" y="640" font-size="8" style="fill:black">ref: fotografias</text><rect x="900" y="670" width="200" height="40" style="fill:white;stroke:black;stroke-width:1" /><text x="910" y="680" font-size="10" style="fill:blue">xs:element</text><path d="M880 240 C900 240 880 690 900 690" style="fill:transparent;stroke:black" /><text x="910" y="690" font-size="8" style="fill:black">ref: videos</text><rect x="900" y="720" width="200" height="40" style="fill:white;stroke:black;stroke-width:1" /><text x="910" y="730" font-size="10" style="fill:blue">xs:element</text><path d="M880 240 C900 240 880 740 900 740" style="fill:transparent;stroke:black" /><text x="910" y="740" font-size="8" style="fill:black">ref: coordenadas</text><rect x="900" y="770" width="200" height="40" style="fill:white;stroke:black;stroke-width:1" /><text x="910" y="780" font-size="10" style="fill:blue">xs:element</text><path d="M880 240 C900 240 880 790 900 790" style="fill:transparent;stroke:black" /><text x="910" y="790" font-size="8" style="fill:black">ref: tramos</text><rect x="240" y="970" width="200" height="40" style="fill:white;stroke:black;stroke-width:1" /><text x="250" y="980" font-size="10" style="fill:blue">xs:element</text><path d="M220 40 C240 40 220 990 240 990" style="fill:transparent;stroke:black" /><text x="250" y="990" font-size="8" style="fill:black">name: nombre_circuito</text><text x="250" y="1000" font-size="8" style="fill:black">type: xs:string</text><rect x="240" y="1020" width="200" height="40" style="fill:white;stroke:black;stroke-width:1" /><text x="250" y="1030" font-size="10" style="fill:blue">xs:element</text><path d="M220 40 C240 40 220 1040 240 1040" style="fill:transparent;stroke:black" /><text x="250" y="1040" font-size="8" style="fill:black">name: longitudCircuito</text><rect x="460" y="1020" width="200" height="40" style="fill:white;stroke:black;stroke-width:1" /><text x="470" y="1030" font-size="10" style="fill:blue">xs:complexType</text><path d="M440 1040 C460 1040 440 1040 460 1040" style="fill:transparent;stroke:black" /><rect x="680" y="1020" width="200" height="40" style="fill:white;stroke:black;stroke-width:1" /><text x="690" y="1030" font-size="10" style="fill:blue">xs:simpleContent</text><path d="M660 1040 C680 1040 660 1040 680 1040" style="fill:transparent;stroke:black" /><rect x="900" y="1020" width="200" height="40" style="fill:white;stroke:black;stroke-width:1" /><text x="910" y="1030" font-size="10" style="fill:blue">xs:extension</text><path d="M880 1040 C900 1040 880 1040 900 1040" style="fill:transparent;stroke:black" /><text x="910" y="1040" font-size="8" style="fill:black">base: xs:positiveInteger</text><rect x="1120" y="1020" width="200" height="40" style="fill:white;stroke:black;stroke-width:1" /><text x="1130" y="1030" font-size="10" style="fill:blue">xs:attribute</text><path d="M1100 1040 C1120 1040 1100 1040 1120 1040" style="fill:transparent;stroke:black" /><text x="1130" y="1040" font-size="8" style="fill:black">name: medida</text><text x="1130" y="1050" font-size="8" style="fill:black">type: xs:string</text><text x="1130" y="1060" font-size="8" style="fill:black">use: required</text><rect x="240" y="1270" width="200" height="40" style="fill:white;stroke:black;stroke-width:1" /><text x="250" y="1280" font-size="10" style="fill:blue">xs:element</text><path d="M220 40 C240 40 220 1290 240 1290" style="fill:transparent;stroke:black" /><text x="250" y="1290" font-size="8" style="fill:black">name: anchura</text><rect x="460" y="1270" width="200" height="40" style="fill:white;stroke:black;stroke-width:1" /><text x="470" y="1280" font-size="10" style="fill:blue">xs:complexType</text><path d="M440 1290 C460 1290 440 1290 460 1290" style="fill:transparent;stroke:black" /><rect x="680" y="1270" width="200" height="40" style="fill:white;stroke:black;stroke-width:1" /><text x="690" y="1280" font-size="10" style="fill:blue">xs:simpleContent</text><path d="M660 1290 C680 1290 660 1290 680 1290" style="fill:transparent;stroke:black" /><rect x="900" y="1270" width="200" height="40" style="fill:white;stroke:black;stroke-width:1" /><text x="910" y="1280" font-size="10" style="fill:blue">xs:extension</text><path d="M880 1290 C900 1290 880 1290 900 1290" style="fill:transparent;stroke:black" /><text x="910" y="1290" font-size="8" style="fill:black">base: xs:positiveInteger</text><rect x="1120" y="1270" width="200" height="40" style="fill:white;stroke:black;stroke-width:1" /><text x="1130" y="1280" font-size="10" style="fill:blue">xs:attribute</text><path d="M1100 1290 C1120 1290 1100 1290 1120 1290" style="fill:transparent;stroke:black" /><text x="1130" y="1290" font-size="8" style="fill:black">name: medida</text><text x="1130" y="1300" font-size="8" style="fill:black">type: xs:string</text><text x="1130" y="1310" font-size="8" style="fill:black">use: required</text><rect x="240" y="1520" width="200" height="40" style="fill:white;stroke:black;stroke-width:1" /><text x="250" y="1530" font-size="10" style="fill:blue">xs:element</text><path d="M220 40 C240 40 220 1540 240 1540" style="fill:transparent;stroke:black" /><text x="250" y="1540" font-size="8" style="fill:black">name: horaEspaña</text><text x="250" y="1550" font-size="8" style="fill:black">type: xs:time</text><rect x="240" y="1570" width="200" height="40" style="fill:white;stroke:black;stroke-width:1" /><text x="250" y="1580" font-size="10" style="fill:blue">xs:element</text><path d="M220 40 C240 40 220 1590 240 1590" style="fill:transparent;stroke:black" /><text x="250" y="1590" font-size="8" style="fill:black">name: numeroVueltas</text><text x="250" y="1600" font-size="8" style="fill:black">type: xs:positiveInteger</text><rect x="240" y="1620" width="200" height="40" style="fill:white;stroke:black;stroke-width:1" /><text x="250" y="1630" font-size="10" style="fill:blue">xs:element</text><path d="M220 40 C240 40 220 1640 240 1640" style="fill:transparent;stroke:black" /><text x="250" y="1640" font-size="8" style="fill:black">name: localidad</text><text x="250" y="1650" font-size="8" style="fill:black">type: xs:string</text><rect x="240" y="1670" width="200" height="40" style="fill:white;stroke:black;stroke-width:1" /><text x="250" y="1680" font-size="10" style="fill:blue">xs:element</text><path d="M220 40 C240 40 220 1690 240 1690" style="fill:transparent;stroke:black" /><text x="250" y="1690" font-size="8" style="fill:black">name: pais</text><text x="250" y="1700" font-size="8" style="fill:black">type: xs:string</text><rect x="240" y="1720" width="200" height="40" style="fill:white;stroke:black;stroke-width:1" /><text x="250" y="1730" font-size="10" style="fill:blue">xs:element</text><path d="M220 40 C240 40 220 1740 240 1740" style="fill:transparent;stroke:black" /><text x="250" y="1740" font-size="8" style="fill:black">name: referencias</text><rect x="460" y="1720" width="200" height="40" style="fill:white;stroke:black;stroke-width:1" /><text x="470" y="1730" font-size="10" style="fill:blue">xs:complexType</text><path d="M440 1740 C460 1740 440 1740 460 1740" style="fill:transparent;stroke:black" /><rect x="680" y="1720" width="200" height="40" style="fill:white;stroke:black;stroke-width:1" /><text x="690" y="1730" font-size="10" style="fill:blue">xs:sequence</text><path d="M660 1740 C680 1740 660 1740 680 1740" style="fill:transparent;stroke:black" /><rect x="900" y="1720" width="200" height="40" style="fill:white;stroke:black;stroke-width:1" /><text x="910" y="1730" font-size="10" style="fill:blue">xs:element</text><path d="M880 1740 C900 1740 880 1740 900 1740" style="fill:transparent;stroke:black" /><text x="910" y="1740" font-size="8" style="fill:black">minOccurs: 3</text><text x="910" y="1750" font-size="8" style="fill:black">maxOccurs: unbounded</text><text x="910" y="1760" font-size="8" style="fill:black">ref: referencia</text><rect x="240" y="1920" width="200" height="40" style="fill:white;stroke:black;stroke-width:1" /><text x="250" y="1930" font-size="10" style="fill:blue">xs:element</text><path d="M220 40 C240 40 220 1940 240 1940" style="fill:transparent;stroke:black" /><text x="250" y="1940" font-size="8" style="fill:black">name: referencia</text><text x="250" y="1950" font-size="8" style="fill:black">type: xs:string</text><rect x="240" y="1970" width="200" height="40" style="fill:white;stroke:black;stroke-width:1" /><text x="250" y="1980" font-size="10" style="fill:blue">xs:element</text><path d="M220 40 C240 40 220 1990 240 1990" style="fill:transparent;stroke:black" /><text x="250" y="1990" font-size="8" style="fill:black">name: fotografias</text><rect x="460" y="1970" width="200" height="40" style="fill:white;stroke:black;stroke-width:1" /><text x="470" y="1980" font-size="10" style="fill:blue">xs:complexType</text><path d="M440 1990 C460 1990 440 1990 460 1990" style="fill:transparent;stroke:black" /><rect x="680" y="1970" width="200" height="40" style="fill:white;stroke:black;stroke-width:1" /><text x="690" y="1980" font-size="10" style="fill:blue">xs:sequence</text><path d="M660 1990 C680 1990 660 1990 680 1990" style="fill:transparent;stroke:black" /><rect x="900" y="1970" width="200" height="40" style="fill:white;stroke:black;stroke-width:1" /><text x="910" y="1980" font-size="10" style="fill:blue">xs:element</text><path d="M880 1990 C900 1990 880 1990 900 1990" style="fill:transparent;stroke:black" /><text x="910" y="1990" font-size="8" style="fill:black">minOccurs: 1</text><text x="910" y="2000" font-size="8" style="fill:black">maxOccurs: 5</text><text x="910" y="2010" font-size="8" style="fill:black">ref: fotografia</text><rect x="240" y="2170" width="200" height="40" style="fill:white;stroke:black;stroke-width:1" /><text x="250" y="2180" font-size="10" style="fill:blue">xs:element</text><path d="M220 40 C240 40 220 2190 240 2190" style="fill:transparent;stroke:black" /><text x="250" y="2190" font-size="8" style="fill:black">name: fotografia</text><text x="250" y="2200" font-size="8" style="fill:black">type: xs:string</text><rect x="240" y="2220" width="200" height="40" style="fill:white;stroke:black;stroke-width:1" /><text x="250" y="2230" font-size="10" style="fill:blue">xs:element</text><path d="M220 40 C240 40 220 2240 240 2240" style="fill:transparent;stroke:black" /><text x="250" y="2240" font-size="8" style="fill:black">name: videos</text><rect x="460" y="2220" width="200" height="40" style="fill:white;stroke:black;stroke-width:1" /><text x="470" y="2230" font-size="10" style="fill:blue">xs:complexType</text><path d="M440 2240 C460 2240 440 2240 460 2240" style="fill:transparent;stroke:black" /><rect x="680" y="2220" width="200" height="40" style="fill:white;stroke:black;stroke-width:1" /><text x="690" y="2230" font-size="10" style="fill:blue">xs:sequence</text><path d="M660 2240 C680 2240 660 2240 680 2240" style="fill:transparent;stroke:black" /><rect x="900" y="2220" width="200" height="40" style="fill:white;stroke:black;stroke-width:1" /><text x="910" y="2230" font-size="10" style="fill:blue">xs:element</text><path d="M880 2240 C900 2240 880 2240 900 2240" style="fill:transparent;stroke:black" /><text x="910" y="2240" font-size="8" style="fill:black">minOccurs: 0</text><text x="910" y="2250" font-size="8" style="fill:black">maxOccurs: 3</text><text x="910" y="2260" font-size="8" style="fill:black">ref: video</text><rect x="240" y="2420" width="200" height="40" style="fill:white;stroke:black;stroke-width:1" /><text x="250" y="2430" font-size="10" style="fill:blue">xs:element</text><path d="M220 40 C240 40 220 2440 240 2440" style="fill:transparent;stroke:black" /><text x="250" y="2440" font-size="8" style="fill:black">name: video</text><rect x="460" y="2420" width="200" height="40" style="fill:white;stroke:black;stroke-width:1" /><text x="470" y="2430" font-size="10" style="fill:blue">xs:complexType</text><path d="M440 2440 C460 2440 440 2440 460 2440" style="fill:transparent;stroke:black" /><rect x="680" y="2420" width="200" height="40" style="fill:white;stroke:black;stroke-width:1" /><text x="690" y="2430" font-size="10" style="fill:blue">xs:simpleContent</text><path d="M660 2440 C680 2440 660 2440 680 2440" style="fill:transparent;stroke:black" /><rect x="900" y="2420" width="200" height="40" style="fill:white;stroke:black;stroke-width:1" /><text x="910" y="2430" font-size="10" style="fill:blue">xs:extension</text><path d="M880 2440 C900 2440 880 2440 900 2440" style="fill:transparent;stroke:black" /><text x="910" y="2440" font-size="8" style="fill:black">base: xs:string</text><rect x="1120" y="2420" width="200" height="40" style="fill:white;stroke:black;stroke-width:1" /><text x="1130" y="2430" font-size="10" style="fill:blue">xs:attribute</text><path d="M1100 2440 C1120 2440 1100 2440 1120 2440" style="fill:transparent;stroke:black" /><text x="1130" y="2440" font-size="8" style="fill:black">name: formato</text><text x="1130" y="2450" font-size="8" style="fill:black">type: xs:string</text><text x="1130" y="2460" font-size="8" style="fill:black">use: required</text><rect x="240" y="2670" width="200" height="40" style="fill:white;stroke:black;stroke-width:1" /><text x="250" y="2680" font-size="10" style="fill:blue">xs:element</text><path d="M220 40 C240 40 220 2690 240 2690" style="fill:transparent;stroke:black" /><text x="250" y="2690" font-size="8" style="fill:black">name: coordenadas</text><rect x="460" y="2670" width="200" height="40" style="fill:white;stroke:black;stroke-width:1" /><text x="470" y="2680" font-size="10" style="fill:blue">xs:complexType</text><path d="M440 2690 C460 2690 440 2690 460 2690" style="fill:transparent;stroke:black" /><rect x="680" y="2670" width="200" height="40" style="fill:white;stroke:black;stroke-width:1" /><text x="690" y="2680" font-size="10" style="fill:blue">xs:sequence</text><path d="M660 2690 C680 2690 660 2690 680 2690" style="fill:transparent;stroke:black" /><rect x="900" y="2670" width="200" height="40" style="fill:white;stroke:black;stroke-width:1" /><text x="910" y="2680" font-size="10" style="fill:blue">xs:element</text><path d="M880 2690 C900 2690 880 2690 900 2690" style="fill:transparent;stroke:black" /><text x="910" y="2690" font-size="8" style="fill:black">minOccurs: 1</text><text x="910" y="2700" font-size="8" style="fill:black">maxOccurs: unbounded</text><text x="910" y="2710" font-size="8" style="fill:black">ref: coordenada</text><rect x="240" y="2870" width="200" height="40" style="fill:white;stroke:black;stroke-width:1" /><text x="250" y="2880" font-size="10" style="fill:blue">xs:element</text><path d="M220 40 C240 40 220 2890 240 2890" style="fill:transparent;stroke:black" /><text x="250" y="2890" font-size="8" style="fill:black">name: coordenada</text><rect x="460" y="2870" width="200" height="40" style="fill:white;stroke:black;stroke-width:1" /><text x="470" y="2880" font-size="10" style="fill:blue">xs:complexType</text><path d="M440 2890 C460 2890 440 2890 460 2890" style="fill:transparent;stroke:black" /><rect x="680" y="2870" width="200" height="40" style="fill:white;stroke:black;stroke-width:1" /><text x="690" y="2880" font-size="10" style="fill:blue">xs:sequence</text><path d="M660 2890 C680 2890 660 2890 680 2890" style="fill:transparent;stroke:black" /><rect x="900" y="2870" width="200" height="40" style="fill:white;stroke:black;stroke-width:1" /><text x="910" y="2880" font-size="10" style="fill:blue">xs:element</text><path d="M880 2890 C900 2890 880 2890 900 2890" style="fill:transparent;stroke:black" /><text x="910" y="2890" font-size="8" style="fill:black">ref: longitud</text><rect x="900" y="2920" width="200" height="40" style="fill:white;stroke:black;stroke-width:1" /><text x="910" y="2930" font-size="10" style="fill:blue">xs:element</text><path d="M880 2890 C900 2890 880 2940 900 2940" style="fill:transparent;stroke:black" /><text x="910" y="2940" font-size="8" style="fill:black">ref: latitud</text><rect x="900" y="2970" width="200" height="40" style="fill:white;stroke:black;stroke-width:1" /><text x="910" y="2980" font-size="10" style="fill:blue">xs:element</text><path d="M880 2890 C900 2890 880 2990 900 2990" style="fill:transparent;stroke:black" /><text x="910" y="2990" font-size="8" style="fill:black">ref: altitud</text><rect x="240" y="3170" width="200" height="40" style="fill:white;stroke:black;stroke-width:1" /><text x="250" y="3180" font-size="10" style="fill:blue">xs:element</text><path d="M220 40 C240 40 220 3190 240 3190" style="fill:transparent;stroke:black" /><text x="250" y="3190" font-size="8" style="fill:black">name: longitud</text><text x="250" y="3200" font-size="8" style="fill:black">type: xs:double</text><rect x="240" y="3220" width="200" height="40" style="fill:white;stroke:black;stroke-width:1" /><text x="250" y="3230" font-size="10" style="fill:blue">xs:element</text><path d="M220 40 C240 40 220 3240 240 3240" style="fill:transparent;stroke:black" /><text x="250" y="3240" font-size="8" style="fill:black">name: latitud</text><text x="250" y="3250" font-size="8" style="fill:black">type: xs:double</text><rect x="240" y="3270" width="200" height="40" style="fill:white;stroke:black;stroke-width:1" /><text x="250" y="3280" font-size="10" style="fill:blue">xs:element</text><path d="M220 40 C240 40 220 3290 240 3290" style="fill:transparent;stroke:black" /><text x="250" y="3290" font-size="8" style="fill:black">name: altitud</text><text x="250" y="3300" font-size="8" style="fill:black">type: xs:double</text><rect x="240" y="3320" width="200" height="40" style="fill:white;stroke:black;stroke-width:1" /><text x="250" y="3330" font-size="10" style="fill:blue">xs:element</text><path d="M220 40 C240 40 220 3340 240 3340" style="fill:transparent;stroke:black" /><text x="250" y="3340" font-size="8" style="fill:black">name: tramos</text><rect x="460" y="3320" width="200" height="40" style="fill:white;stroke:black;stroke-width:1" /><text x="470" y="3330" font-size="10" style="fill:blue">xs:complexType</text><path d="M440 3340 C460 3340 440 3340 460 3340" style="fill:transparent;stroke:black" /><rect x="680" y="3320" width="200" height="40" style="fill:white;stroke:black;stroke-width:1" /><text x="690" y="3330" font-size="10" style="fill:blue">xs:sequence</text><path d="M660 3340 C680 3340 660 3340 680 3340" style="fill:transparent;stroke:black" /><rect x="900" y="3320" width="200" height="40" style="fill:white;stroke:black;stroke-width:1" /><text x="910" y="3330" font-size="10" style="fill:blue">xs:element</text><path d="M880 3340 C900 3340 880 3340 900 3340" style="fill:transparent;stroke:black" /><text x="910" y="3340" font-size="8" style="fill:black">minOccurs: 1</text><text x="910" y="3350" font-size="8" style="fill:black">maxOccurs: unbounded</text><text x="910" y="3360" font-size="8" style="fill:black">ref: tramo</text><rect x="240" y="3520" width="200" height="40" style="fill:white;stroke:black;stroke-width:1" /><text x="250" y="3530" font-size="10" style="fill:blue">xs:element</text><path d="M220 40 C240 40 220 3540 240 3540" style="fill:transparent;stroke:black" /><text x="250" y="3540" font-size="8" style="fill:black">name: tramo</text><rect x="460" y="3520" width="200" height="40" style="fill:white;stroke:black;stroke-width:1" /><text x="470" y="3530" font-size="10" style="fill:blue">xs:complexType</text><path d="M440 3540 C460 3540 440 3540 460 3540" style="fill:transparent;stroke:black" /><rect x="680" y="3520" width="200" height="40" style="fill:white;stroke:black;stroke-width:1" /><text x="690" y="3530" font-size="10" style="fill:blue">xs:sequence</text><path d="M660 3540 C680 3540 660 3540 680 3540" style="fill:transparent;stroke:black" /><rect x="900" y="3520" width="200" height="40" style="fill:white;stroke:black;stroke-width:1" /><text x="910" y="3530" font-size="10" style="fill:blue">xs:element</text><path d="M880 3540 C900 3540 880 3540 900 3540" style="fill:transparent;stroke:black" /><text x="910" y="3540" font-size="8" style="fill:black">ref: distancia</text><rect x="900" y="3570" width="200" height="40" style="fill:white;stroke:black;stroke-width:1" /><text x="910" y="3580" font-size="10" style="fill:blue">xs:element</text><path d="M880 3540 C900 3540 880 3590 900 3590" style="fill:transparent;stroke:black" /><text x="910" y="3590" font-size="8" style="fill:black">ref: coordenada</text><rect x="900" y="3620" width="200" height="40" style="fill:white;stroke:black;stroke-width:1" /><text x="910" y="3630" font-size="10" style="fill:blue">xs:element</text><path d="M880 3540 C900 3540 880 3640 900 3640" style="fill:transparent;stroke:black" /><text x="910" y="3640" font-size="8" style="fill:black">ref: numero-sector</text><rect x="240" y="3820" width="200" height="40" style="fill:white;stroke:black;stroke-width:1" /><text x="250" y="3830" font-size="10" style="fill:blue">xs:element</text><path d="M220 40 C240 40 220 3840 240 3840" style="fill:transparent;stroke:black" /><text x="250" y="3840" font-size="8" style="fill:black">name: distancia</text><rect x="460" y="3820" width="200" height="40" style="fill:white;stroke:black;stroke-width:1" /><text x="470" y="3830" font-size="10" style="fill:blue">xs:complexType</text><path d="M440 3840 C460 3840 440 3840 460 3840" style="fill:transparent;stroke:black" /><rect x="680" y="3820" width="200" height="40" style="fill:white;stroke:black;stroke-width:1" /><text x="690" y="3830" font-size="10" style="fill:blue">xs:simpleContent</text><path d="M660 3840 C680 3840 660 3840 680 3840" style="fill:transparent;stroke:black" /><rect x="900" y="3820" width="200" height="40" style="fill:white;stroke:black;stroke-width:1" /><text x="910" y="3830" font-size="10" style="fill:blue">xs:extension</text><path d="M880 3840 C900 3840 880 3840 900 3840" style="fill:transparent;stroke:black" /><text x="910" y="3840" font-size="8" style="fill:black">base: xs:integer</text><rect x="1120" y="3820" width="200" height="40" style="fill:white;stroke:black;stroke-width:1" /><text x="1130" y="3830" font-size="10" style="fill:blue">xs:attribute</text><path d="M1100 3840 C1120 3840 1100 3840 1120 3840" style="fill:transparent;stroke:black" /><text x="1130" y="3840" font-size="8" style="fill:black">name: unidad</text><text x="1130" y="3850" font-size="8" style="fill:black">type: xs:string</text><text x="1130" y="3860" font-size="8" style="fill:black">use: required</text><rect x="240" y="4070" width="200" height="40" style="fill:white;stroke:black;stroke-width:1" /><text x="250" y="4080" font-size="10" style="fill:blue">xs:element</text><path d="M220 40 C240 40 220 4090 240 4090" style="fill:transparent;stroke:black" /><text x="250" y="4090" font-size="8" style="fill:black">name: numero-sector</text><text x="250" y="4100" font-size="8" style="fill:black">type: xs:integer</text></svg>